%TF.GenerationSoftware,KiCad,Pcbnew,10.0.3*%
%TF.CreationDate,2026-08-08T20:06:36-05:00*%
%TF.ProjectId,DC-DC boost converter,44432d44-4320-4626-9f6f-737420636f6e,rev?*%
%TF.SameCoordinates,Original*%
%TF.FileFunction,Legend,Top*%
%TF.FilePolarity,Positive*%
%FSLAX46Y46*%
G04 Gerber Fmt 4.6, Leading zero omitted, Abs format (unit mm)*
G04 Created by KiCad (PCBNEW 10.0.3) date 2026-08-08 20:06:36*
%MOMM*%
%LPD*%
G01*
G04 APERTURE LIST*
%ADD10C,0.150000*%
%ADD11C,0.120000*%
G04 APERTURE END LIST*
D10*
X179538095Y-76004819D02*
X179538095Y-76814342D01*
X179538095Y-76814342D02*
X179585714Y-76909580D01*
X179585714Y-76909580D02*
X179633333Y-76957200D01*
X179633333Y-76957200D02*
X179728571Y-77004819D01*
X179728571Y-77004819D02*
X179919047Y-77004819D01*
X179919047Y-77004819D02*
X180014285Y-76957200D01*
X180014285Y-76957200D02*
X180061904Y-76909580D01*
X180061904Y-76909580D02*
X180109523Y-76814342D01*
X180109523Y-76814342D02*
X180109523Y-76004819D01*
X181109523Y-77004819D02*
X180538095Y-77004819D01*
X180823809Y-77004819D02*
X180823809Y-76004819D01*
X180823809Y-76004819D02*
X180728571Y-76147676D01*
X180728571Y-76147676D02*
X180633333Y-76242914D01*
X180633333Y-76242914D02*
X180538095Y-76290533D01*
X170833333Y-80459580D02*
X170785714Y-80507200D01*
X170785714Y-80507200D02*
X170642857Y-80554819D01*
X170642857Y-80554819D02*
X170547619Y-80554819D01*
X170547619Y-80554819D02*
X170404762Y-80507200D01*
X170404762Y-80507200D02*
X170309524Y-80411961D01*
X170309524Y-80411961D02*
X170261905Y-80316723D01*
X170261905Y-80316723D02*
X170214286Y-80126247D01*
X170214286Y-80126247D02*
X170214286Y-79983390D01*
X170214286Y-79983390D02*
X170261905Y-79792914D01*
X170261905Y-79792914D02*
X170309524Y-79697676D01*
X170309524Y-79697676D02*
X170404762Y-79602438D01*
X170404762Y-79602438D02*
X170547619Y-79554819D01*
X170547619Y-79554819D02*
X170642857Y-79554819D01*
X170642857Y-79554819D02*
X170785714Y-79602438D01*
X170785714Y-79602438D02*
X170833333Y-79650057D01*
X171785714Y-80554819D02*
X171214286Y-80554819D01*
X171500000Y-80554819D02*
X171500000Y-79554819D01*
X171500000Y-79554819D02*
X171404762Y-79697676D01*
X171404762Y-79697676D02*
X171309524Y-79792914D01*
X171309524Y-79792914D02*
X171214286Y-79840533D01*
X164666666Y-80454819D02*
X164666666Y-81169104D01*
X164666666Y-81169104D02*
X164619047Y-81311961D01*
X164619047Y-81311961D02*
X164523809Y-81407200D01*
X164523809Y-81407200D02*
X164380952Y-81454819D01*
X164380952Y-81454819D02*
X164285714Y-81454819D01*
X165666666Y-81454819D02*
X165095238Y-81454819D01*
X165380952Y-81454819D02*
X165380952Y-80454819D01*
X165380952Y-80454819D02*
X165285714Y-80597676D01*
X165285714Y-80597676D02*
X165190476Y-80692914D01*
X165190476Y-80692914D02*
X165095238Y-80740533D01*
X172833333Y-99454819D02*
X172500000Y-98978628D01*
X172261905Y-99454819D02*
X172261905Y-98454819D01*
X172261905Y-98454819D02*
X172642857Y-98454819D01*
X172642857Y-98454819D02*
X172738095Y-98502438D01*
X172738095Y-98502438D02*
X172785714Y-98550057D01*
X172785714Y-98550057D02*
X172833333Y-98645295D01*
X172833333Y-98645295D02*
X172833333Y-98788152D01*
X172833333Y-98788152D02*
X172785714Y-98883390D01*
X172785714Y-98883390D02*
X172738095Y-98931009D01*
X172738095Y-98931009D02*
X172642857Y-98978628D01*
X172642857Y-98978628D02*
X172261905Y-98978628D01*
X173166667Y-98454819D02*
X173785714Y-98454819D01*
X173785714Y-98454819D02*
X173452381Y-98835771D01*
X173452381Y-98835771D02*
X173595238Y-98835771D01*
X173595238Y-98835771D02*
X173690476Y-98883390D01*
X173690476Y-98883390D02*
X173738095Y-98931009D01*
X173738095Y-98931009D02*
X173785714Y-99026247D01*
X173785714Y-99026247D02*
X173785714Y-99264342D01*
X173785714Y-99264342D02*
X173738095Y-99359580D01*
X173738095Y-99359580D02*
X173690476Y-99407200D01*
X173690476Y-99407200D02*
X173595238Y-99454819D01*
X173595238Y-99454819D02*
X173309524Y-99454819D01*
X173309524Y-99454819D02*
X173214286Y-99407200D01*
X173214286Y-99407200D02*
X173166667Y-99359580D01*
X177023333Y-90084819D02*
X176690000Y-89608628D01*
X176451905Y-90084819D02*
X176451905Y-89084819D01*
X176451905Y-89084819D02*
X176832857Y-89084819D01*
X176832857Y-89084819D02*
X176928095Y-89132438D01*
X176928095Y-89132438D02*
X176975714Y-89180057D01*
X176975714Y-89180057D02*
X177023333Y-89275295D01*
X177023333Y-89275295D02*
X177023333Y-89418152D01*
X177023333Y-89418152D02*
X176975714Y-89513390D01*
X176975714Y-89513390D02*
X176928095Y-89561009D01*
X176928095Y-89561009D02*
X176832857Y-89608628D01*
X176832857Y-89608628D02*
X176451905Y-89608628D01*
X177975714Y-90084819D02*
X177404286Y-90084819D01*
X177690000Y-90084819D02*
X177690000Y-89084819D01*
X177690000Y-89084819D02*
X177594762Y-89227676D01*
X177594762Y-89227676D02*
X177499524Y-89322914D01*
X177499524Y-89322914D02*
X177404286Y-89370533D01*
X215166666Y-80534819D02*
X215166666Y-81249104D01*
X215166666Y-81249104D02*
X215119047Y-81391961D01*
X215119047Y-81391961D02*
X215023809Y-81487200D01*
X215023809Y-81487200D02*
X214880952Y-81534819D01*
X214880952Y-81534819D02*
X214785714Y-81534819D01*
X215595238Y-80630057D02*
X215642857Y-80582438D01*
X215642857Y-80582438D02*
X215738095Y-80534819D01*
X215738095Y-80534819D02*
X215976190Y-80534819D01*
X215976190Y-80534819D02*
X216071428Y-80582438D01*
X216071428Y-80582438D02*
X216119047Y-80630057D01*
X216119047Y-80630057D02*
X216166666Y-80725295D01*
X216166666Y-80725295D02*
X216166666Y-80820533D01*
X216166666Y-80820533D02*
X216119047Y-80963390D01*
X216119047Y-80963390D02*
X215547619Y-81534819D01*
X215547619Y-81534819D02*
X216166666Y-81534819D01*
X206333333Y-78609580D02*
X206285714Y-78657200D01*
X206285714Y-78657200D02*
X206142857Y-78704819D01*
X206142857Y-78704819D02*
X206047619Y-78704819D01*
X206047619Y-78704819D02*
X205904762Y-78657200D01*
X205904762Y-78657200D02*
X205809524Y-78561961D01*
X205809524Y-78561961D02*
X205761905Y-78466723D01*
X205761905Y-78466723D02*
X205714286Y-78276247D01*
X205714286Y-78276247D02*
X205714286Y-78133390D01*
X205714286Y-78133390D02*
X205761905Y-77942914D01*
X205761905Y-77942914D02*
X205809524Y-77847676D01*
X205809524Y-77847676D02*
X205904762Y-77752438D01*
X205904762Y-77752438D02*
X206047619Y-77704819D01*
X206047619Y-77704819D02*
X206142857Y-77704819D01*
X206142857Y-77704819D02*
X206285714Y-77752438D01*
X206285714Y-77752438D02*
X206333333Y-77800057D01*
X206666667Y-77704819D02*
X207285714Y-77704819D01*
X207285714Y-77704819D02*
X206952381Y-78085771D01*
X206952381Y-78085771D02*
X207095238Y-78085771D01*
X207095238Y-78085771D02*
X207190476Y-78133390D01*
X207190476Y-78133390D02*
X207238095Y-78181009D01*
X207238095Y-78181009D02*
X207285714Y-78276247D01*
X207285714Y-78276247D02*
X207285714Y-78514342D01*
X207285714Y-78514342D02*
X207238095Y-78609580D01*
X207238095Y-78609580D02*
X207190476Y-78657200D01*
X207190476Y-78657200D02*
X207095238Y-78704819D01*
X207095238Y-78704819D02*
X206809524Y-78704819D01*
X206809524Y-78704819D02*
X206714286Y-78657200D01*
X206714286Y-78657200D02*
X206666667Y-78609580D01*
X182333333Y-63204819D02*
X181857143Y-63204819D01*
X181857143Y-63204819D02*
X181857143Y-62204819D01*
X183190476Y-63204819D02*
X182619048Y-63204819D01*
X182904762Y-63204819D02*
X182904762Y-62204819D01*
X182904762Y-62204819D02*
X182809524Y-62347676D01*
X182809524Y-62347676D02*
X182714286Y-62442914D01*
X182714286Y-62442914D02*
X182619048Y-62490533D01*
X193181905Y-87424819D02*
X193181905Y-86424819D01*
X193181905Y-86424819D02*
X193420000Y-86424819D01*
X193420000Y-86424819D02*
X193562857Y-86472438D01*
X193562857Y-86472438D02*
X193658095Y-86567676D01*
X193658095Y-86567676D02*
X193705714Y-86662914D01*
X193705714Y-86662914D02*
X193753333Y-86853390D01*
X193753333Y-86853390D02*
X193753333Y-86996247D01*
X193753333Y-86996247D02*
X193705714Y-87186723D01*
X193705714Y-87186723D02*
X193658095Y-87281961D01*
X193658095Y-87281961D02*
X193562857Y-87377200D01*
X193562857Y-87377200D02*
X193420000Y-87424819D01*
X193420000Y-87424819D02*
X193181905Y-87424819D01*
X194705714Y-87424819D02*
X194134286Y-87424819D01*
X194420000Y-87424819D02*
X194420000Y-86424819D01*
X194420000Y-86424819D02*
X194324762Y-86567676D01*
X194324762Y-86567676D02*
X194229524Y-86662914D01*
X194229524Y-86662914D02*
X194134286Y-86710533D01*
X198738095Y-87054819D02*
X198738095Y-86054819D01*
X199309523Y-87054819D02*
X198880952Y-86483390D01*
X199309523Y-86054819D02*
X198738095Y-86626247D01*
X187523333Y-90084819D02*
X187190000Y-89608628D01*
X186951905Y-90084819D02*
X186951905Y-89084819D01*
X186951905Y-89084819D02*
X187332857Y-89084819D01*
X187332857Y-89084819D02*
X187428095Y-89132438D01*
X187428095Y-89132438D02*
X187475714Y-89180057D01*
X187475714Y-89180057D02*
X187523333Y-89275295D01*
X187523333Y-89275295D02*
X187523333Y-89418152D01*
X187523333Y-89418152D02*
X187475714Y-89513390D01*
X187475714Y-89513390D02*
X187428095Y-89561009D01*
X187428095Y-89561009D02*
X187332857Y-89608628D01*
X187332857Y-89608628D02*
X186951905Y-89608628D01*
X187904286Y-89180057D02*
X187951905Y-89132438D01*
X187951905Y-89132438D02*
X188047143Y-89084819D01*
X188047143Y-89084819D02*
X188285238Y-89084819D01*
X188285238Y-89084819D02*
X188380476Y-89132438D01*
X188380476Y-89132438D02*
X188428095Y-89180057D01*
X188428095Y-89180057D02*
X188475714Y-89275295D01*
X188475714Y-89275295D02*
X188475714Y-89370533D01*
X188475714Y-89370533D02*
X188428095Y-89513390D01*
X188428095Y-89513390D02*
X187856667Y-90084819D01*
X187856667Y-90084819D02*
X188475714Y-90084819D01*
X184833333Y-99359580D02*
X184785714Y-99407200D01*
X184785714Y-99407200D02*
X184642857Y-99454819D01*
X184642857Y-99454819D02*
X184547619Y-99454819D01*
X184547619Y-99454819D02*
X184404762Y-99407200D01*
X184404762Y-99407200D02*
X184309524Y-99311961D01*
X184309524Y-99311961D02*
X184261905Y-99216723D01*
X184261905Y-99216723D02*
X184214286Y-99026247D01*
X184214286Y-99026247D02*
X184214286Y-98883390D01*
X184214286Y-98883390D02*
X184261905Y-98692914D01*
X184261905Y-98692914D02*
X184309524Y-98597676D01*
X184309524Y-98597676D02*
X184404762Y-98502438D01*
X184404762Y-98502438D02*
X184547619Y-98454819D01*
X184547619Y-98454819D02*
X184642857Y-98454819D01*
X184642857Y-98454819D02*
X184785714Y-98502438D01*
X184785714Y-98502438D02*
X184833333Y-98550057D01*
X185214286Y-98550057D02*
X185261905Y-98502438D01*
X185261905Y-98502438D02*
X185357143Y-98454819D01*
X185357143Y-98454819D02*
X185595238Y-98454819D01*
X185595238Y-98454819D02*
X185690476Y-98502438D01*
X185690476Y-98502438D02*
X185738095Y-98550057D01*
X185738095Y-98550057D02*
X185785714Y-98645295D01*
X185785714Y-98645295D02*
X185785714Y-98740533D01*
X185785714Y-98740533D02*
X185738095Y-98883390D01*
X185738095Y-98883390D02*
X185166667Y-99454819D01*
X185166667Y-99454819D02*
X185785714Y-99454819D01*
%TO.C,U1*%
D11*
X175190000Y-77390000D02*
X185410000Y-77390000D01*
X175190000Y-78770000D02*
X185410000Y-78770000D01*
X175190000Y-82010000D02*
X175190000Y-77390000D01*
X176415000Y-82010000D02*
X176415000Y-84540000D01*
X177385000Y-82010000D02*
X177385000Y-84540000D01*
X177440000Y-82010000D02*
X175190000Y-82010000D01*
X178450000Y-77390000D02*
X178450000Y-78770000D01*
X179815000Y-82010000D02*
X179815000Y-84646000D01*
X180785000Y-82010000D02*
X180785000Y-84646000D01*
X180840000Y-82010000D02*
X179760000Y-82010000D01*
X182150000Y-77390000D02*
X182150000Y-78770000D01*
X183215000Y-82010000D02*
X183215000Y-84646000D01*
X184185000Y-82010000D02*
X184185000Y-84646000D01*
X185410000Y-77390000D02*
X185410000Y-82010000D01*
X185410000Y-82010000D02*
X183160000Y-82010000D01*
%TO.C,C1*%
X166249759Y-82661000D02*
X166879759Y-82661000D01*
X166564759Y-82346000D02*
X166564759Y-82976000D01*
X169750000Y-81270000D02*
X169750000Y-87730000D01*
X169790000Y-81270000D02*
X169790000Y-87730000D01*
X169830000Y-81271000D02*
X169830000Y-87729000D01*
X169870000Y-81272000D02*
X169870000Y-87728000D01*
X169910000Y-81274000D02*
X169910000Y-87726000D01*
X169950000Y-81276000D02*
X169950000Y-87724000D01*
X169990000Y-81279000D02*
X169990000Y-83460000D01*
X169990000Y-85540000D02*
X169990000Y-87721000D01*
X170030000Y-81282000D02*
X170030000Y-83460000D01*
X170030000Y-85540000D02*
X170030000Y-87718000D01*
X170070000Y-81286000D02*
X170070000Y-83460000D01*
X170070000Y-85540000D02*
X170070000Y-87714000D01*
X170110000Y-81290000D02*
X170110000Y-83460000D01*
X170110000Y-85540000D02*
X170110000Y-87710000D01*
X170150000Y-81295000D02*
X170150000Y-83460000D01*
X170150000Y-85540000D02*
X170150000Y-87705000D01*
X170190000Y-81300000D02*
X170190000Y-83460000D01*
X170190000Y-85540000D02*
X170190000Y-87700000D01*
X170230000Y-81305000D02*
X170230000Y-83460000D01*
X170230000Y-85540000D02*
X170230000Y-87695000D01*
X170270000Y-81312000D02*
X170270000Y-83460000D01*
X170270000Y-85540000D02*
X170270000Y-87688000D01*
X170310000Y-81318000D02*
X170310000Y-83460000D01*
X170310000Y-85540000D02*
X170310000Y-87682000D01*
X170350000Y-81326000D02*
X170350000Y-83460000D01*
X170350000Y-85540000D02*
X170350000Y-87674000D01*
X170390000Y-81333000D02*
X170390000Y-83460000D01*
X170390000Y-85540000D02*
X170390000Y-87667000D01*
X170430000Y-81341000D02*
X170430000Y-83460000D01*
X170430000Y-85540000D02*
X170430000Y-87659000D01*
X170470000Y-81350000D02*
X170470000Y-83460000D01*
X170470000Y-85540000D02*
X170470000Y-87650000D01*
X170510000Y-81360000D02*
X170510000Y-83460000D01*
X170510000Y-85540000D02*
X170510000Y-87640000D01*
X170550000Y-81369000D02*
X170550000Y-83460000D01*
X170550000Y-85540000D02*
X170550000Y-87631000D01*
X170590000Y-81380000D02*
X170590000Y-83460000D01*
X170590000Y-85540000D02*
X170590000Y-87620000D01*
X170630000Y-81391000D02*
X170630000Y-83460000D01*
X170630000Y-85540000D02*
X170630000Y-87609000D01*
X170670000Y-81402000D02*
X170670000Y-83460000D01*
X170670000Y-85540000D02*
X170670000Y-87598000D01*
X170710000Y-81414000D02*
X170710000Y-83460000D01*
X170710000Y-85540000D02*
X170710000Y-87586000D01*
X170750000Y-81427000D02*
X170750000Y-83460000D01*
X170750000Y-85540000D02*
X170750000Y-87573000D01*
X170790000Y-81440000D02*
X170790000Y-83460000D01*
X170790000Y-85540000D02*
X170790000Y-87560000D01*
X170830000Y-81453000D02*
X170830000Y-83460000D01*
X170830000Y-85540000D02*
X170830000Y-87547000D01*
X170870000Y-81468000D02*
X170870000Y-83460000D01*
X170870000Y-85540000D02*
X170870000Y-87532000D01*
X170910000Y-81483000D02*
X170910000Y-83460000D01*
X170910000Y-85540000D02*
X170910000Y-87517000D01*
X170950000Y-81498000D02*
X170950000Y-83460000D01*
X170950000Y-85540000D02*
X170950000Y-87502000D01*
X170990000Y-81514000D02*
X170990000Y-83460000D01*
X170990000Y-85540000D02*
X170990000Y-87486000D01*
X171030000Y-81531000D02*
X171030000Y-83460000D01*
X171030000Y-85540000D02*
X171030000Y-87469000D01*
X171070000Y-81548000D02*
X171070000Y-83460000D01*
X171070000Y-85540000D02*
X171070000Y-87452000D01*
X171110000Y-81566000D02*
X171110000Y-83460000D01*
X171110000Y-85540000D02*
X171110000Y-87434000D01*
X171150000Y-81585000D02*
X171150000Y-83460000D01*
X171150000Y-85540000D02*
X171150000Y-87415000D01*
X171190000Y-81604000D02*
X171190000Y-83460000D01*
X171190000Y-85540000D02*
X171190000Y-87396000D01*
X171230000Y-81624000D02*
X171230000Y-83460000D01*
X171230000Y-85540000D02*
X171230000Y-87376000D01*
X171270000Y-81645000D02*
X171270000Y-83460000D01*
X171270000Y-85540000D02*
X171270000Y-87355000D01*
X171310000Y-81666000D02*
X171310000Y-83460000D01*
X171310000Y-85540000D02*
X171310000Y-87334000D01*
X171350000Y-81688000D02*
X171350000Y-83460000D01*
X171350000Y-85540000D02*
X171350000Y-87312000D01*
X171390000Y-81711000D02*
X171390000Y-83460000D01*
X171390000Y-85540000D02*
X171390000Y-87289000D01*
X171430000Y-81735000D02*
X171430000Y-83460000D01*
X171430000Y-85540000D02*
X171430000Y-87265000D01*
X171470000Y-81759000D02*
X171470000Y-83460000D01*
X171470000Y-85540000D02*
X171470000Y-87241000D01*
X171510000Y-81784000D02*
X171510000Y-83460000D01*
X171510000Y-85540000D02*
X171510000Y-87216000D01*
X171550000Y-81810000D02*
X171550000Y-83460000D01*
X171550000Y-85540000D02*
X171550000Y-87190000D01*
X171590000Y-81837000D02*
X171590000Y-83460000D01*
X171590000Y-85540000D02*
X171590000Y-87163000D01*
X171630000Y-81864000D02*
X171630000Y-83460000D01*
X171630000Y-85540000D02*
X171630000Y-87136000D01*
X171670000Y-81893000D02*
X171670000Y-83460000D01*
X171670000Y-85540000D02*
X171670000Y-87107000D01*
X171710000Y-81923000D02*
X171710000Y-83460000D01*
X171710000Y-85540000D02*
X171710000Y-87077000D01*
X171750000Y-81953000D02*
X171750000Y-83460000D01*
X171750000Y-85540000D02*
X171750000Y-87047000D01*
X171790000Y-81984000D02*
X171790000Y-83460000D01*
X171790000Y-85540000D02*
X171790000Y-87016000D01*
X171830000Y-82017000D02*
X171830000Y-83460000D01*
X171830000Y-85540000D02*
X171830000Y-86983000D01*
X171870000Y-82050000D02*
X171870000Y-83460000D01*
X171870000Y-85540000D02*
X171870000Y-86950000D01*
X171910000Y-82085000D02*
X171910000Y-83460000D01*
X171910000Y-85540000D02*
X171910000Y-86915000D01*
X171950000Y-82121000D02*
X171950000Y-83460000D01*
X171950000Y-85540000D02*
X171950000Y-86879000D01*
X171990000Y-82158000D02*
X171990000Y-83460000D01*
X171990000Y-85540000D02*
X171990000Y-86842000D01*
X172030000Y-82196000D02*
X172030000Y-83460000D01*
X172030000Y-85540000D02*
X172030000Y-86804000D01*
X172070000Y-82236000D02*
X172070000Y-86764000D01*
X172110000Y-82277000D02*
X172110000Y-86723000D01*
X172150000Y-82319000D02*
X172150000Y-86681000D01*
X172190000Y-82363000D02*
X172190000Y-86637000D01*
X172230000Y-82409000D02*
X172230000Y-86591000D01*
X172270000Y-82456000D02*
X172270000Y-86544000D01*
X172310000Y-82505000D02*
X172310000Y-86495000D01*
X172350000Y-82557000D02*
X172350000Y-86443000D01*
X172390000Y-82610000D02*
X172390000Y-86390000D01*
X172430000Y-82666000D02*
X172430000Y-86334000D01*
X172470000Y-82725000D02*
X172470000Y-86275000D01*
X172510000Y-82786000D02*
X172510000Y-86214000D01*
X172550000Y-82851000D02*
X172550000Y-86149000D01*
X172590000Y-82919000D02*
X172590000Y-86081000D01*
X172630000Y-82991000D02*
X172630000Y-86009000D01*
X172670000Y-83068000D02*
X172670000Y-85932000D01*
X172710000Y-83150000D02*
X172710000Y-85850000D01*
X172750000Y-83239000D02*
X172750000Y-85761000D01*
X172790000Y-83335000D02*
X172790000Y-85665000D01*
X172830000Y-83442000D02*
X172830000Y-85558000D01*
X172870000Y-83561000D02*
X172870000Y-85439000D01*
X172910000Y-83699000D02*
X172910000Y-85301000D01*
X172950000Y-83867000D02*
X172950000Y-85133000D01*
X172990000Y-84098000D02*
X172990000Y-84902000D01*
X173020000Y-84500000D02*
G75*
G02*
X166480000Y-84500000I-3270000J0D01*
G01*
X166480000Y-84500000D02*
G75*
G02*
X173020000Y-84500000I3270000J0D01*
G01*
%TO.C,J1*%
X161620000Y-82080000D02*
X163000000Y-82080000D01*
X161620000Y-83460000D02*
X161620000Y-82080000D01*
X161620000Y-84730000D02*
X161620000Y-87380000D01*
X161620000Y-84730000D02*
X164380000Y-84730000D01*
X161620000Y-87380000D02*
X164380000Y-87380000D01*
X164380000Y-84730000D02*
X164380000Y-87380000D01*
%TO.C,R3*%
X180270000Y-97870000D02*
X180270000Y-97540000D01*
X180270000Y-95130000D02*
X180270000Y-95460000D01*
X173730000Y-97870000D02*
X180270000Y-97870000D01*
X173730000Y-97540000D02*
X173730000Y-97870000D01*
X173730000Y-95460000D02*
X173730000Y-95130000D01*
X173730000Y-95130000D02*
X180270000Y-95130000D01*
%TO.C,R1*%
X180460000Y-93370000D02*
X180460000Y-93040000D01*
X180460000Y-90630000D02*
X180460000Y-90960000D01*
X173920000Y-93370000D02*
X180460000Y-93370000D01*
X173920000Y-93040000D02*
X173920000Y-93370000D01*
X173920000Y-90960000D02*
X173920000Y-90630000D01*
X173920000Y-90630000D02*
X180460000Y-90630000D01*
%TO.C,J2*%
X216880000Y-84730000D02*
X216880000Y-87380000D01*
X214120000Y-87380000D02*
X216880000Y-87380000D01*
X214120000Y-84730000D02*
X216880000Y-84730000D01*
X214120000Y-84730000D02*
X214120000Y-87380000D01*
X214120000Y-83460000D02*
X214120000Y-82080000D01*
X214120000Y-82080000D02*
X215500000Y-82080000D01*
%TO.C,C3*%
X211620000Y-84500000D02*
G75*
G02*
X201380000Y-84500000I-5120000J0D01*
G01*
X201380000Y-84500000D02*
G75*
G02*
X211620000Y-84500000I5120000J0D01*
G01*
X211580000Y-83901000D02*
X211580000Y-85099000D01*
X211540000Y-83638000D02*
X211540000Y-85362000D01*
X211500000Y-83438000D02*
X211500000Y-85562000D01*
X211460000Y-83270000D02*
X211460000Y-85730000D01*
X211420000Y-83123000D02*
X211420000Y-85877000D01*
X211380000Y-82991000D02*
X211380000Y-86009000D01*
X211340000Y-82870000D02*
X211340000Y-86130000D01*
X211300000Y-82758000D02*
X211300000Y-86242000D01*
X211260000Y-82654000D02*
X211260000Y-86346000D01*
X211220000Y-82556000D02*
X211220000Y-86444000D01*
X211180000Y-82463000D02*
X211180000Y-86537000D01*
X211140000Y-82376000D02*
X211140000Y-86624000D01*
X211100000Y-82292000D02*
X211100000Y-86708000D01*
X211060000Y-82212000D02*
X211060000Y-86788000D01*
X211020000Y-82135000D02*
X211020000Y-86865000D01*
X210980000Y-82061000D02*
X210980000Y-86939000D01*
X210940000Y-81990000D02*
X210940000Y-87010000D01*
X210900000Y-81922000D02*
X210900000Y-87078000D01*
X210860000Y-81856000D02*
X210860000Y-87144000D01*
X210820000Y-81792000D02*
X210820000Y-87208000D01*
X210780000Y-81730000D02*
X210780000Y-87270000D01*
X210740000Y-81670000D02*
X210740000Y-87330000D01*
X210700000Y-81612000D02*
X210700000Y-87388000D01*
X210660000Y-81555000D02*
X210660000Y-87445000D01*
X210620000Y-81500000D02*
X210620000Y-87500000D01*
X210580000Y-81447000D02*
X210580000Y-87553000D01*
X210540000Y-81395000D02*
X210540000Y-87605000D01*
X210500000Y-81344000D02*
X210500000Y-87656000D01*
X210460000Y-81295000D02*
X210460000Y-87705000D01*
X210420000Y-81246000D02*
X210420000Y-87754000D01*
X210380000Y-81199000D02*
X210380000Y-87801000D01*
X210340000Y-81153000D02*
X210340000Y-87847000D01*
X210300000Y-81109000D02*
X210300000Y-87891000D01*
X210260000Y-81065000D02*
X210260000Y-87935000D01*
X210220000Y-85740000D02*
X210220000Y-87978000D01*
X210220000Y-81022000D02*
X210220000Y-83260000D01*
X210180000Y-85740000D02*
X210180000Y-88020000D01*
X210180000Y-80980000D02*
X210180000Y-83260000D01*
X210140000Y-85740000D02*
X210140000Y-88061000D01*
X210140000Y-80939000D02*
X210140000Y-83260000D01*
X210100000Y-85740000D02*
X210100000Y-88101000D01*
X210100000Y-80899000D02*
X210100000Y-83260000D01*
X210060000Y-85740000D02*
X210060000Y-88140000D01*
X210060000Y-80860000D02*
X210060000Y-83260000D01*
X210020000Y-85740000D02*
X210020000Y-88178000D01*
X210020000Y-80822000D02*
X210020000Y-83260000D01*
X209980000Y-85740000D02*
X209980000Y-88216000D01*
X209980000Y-80784000D02*
X209980000Y-83260000D01*
X209940000Y-85740000D02*
X209940000Y-88252000D01*
X209940000Y-80748000D02*
X209940000Y-83260000D01*
X209900000Y-85740000D02*
X209900000Y-88288000D01*
X209900000Y-80712000D02*
X209900000Y-83260000D01*
X209860000Y-85740000D02*
X209860000Y-88323000D01*
X209860000Y-80677000D02*
X209860000Y-83260000D01*
X209820000Y-85740000D02*
X209820000Y-88358000D01*
X209820000Y-80642000D02*
X209820000Y-83260000D01*
X209780000Y-85740000D02*
X209780000Y-88391000D01*
X209780000Y-80609000D02*
X209780000Y-83260000D01*
X209740000Y-85740000D02*
X209740000Y-88424000D01*
X209740000Y-80576000D02*
X209740000Y-83260000D01*
X209700000Y-85740000D02*
X209700000Y-88457000D01*
X209700000Y-80543000D02*
X209700000Y-83260000D01*
X209660000Y-85740000D02*
X209660000Y-88488000D01*
X209660000Y-80512000D02*
X209660000Y-83260000D01*
X209620000Y-85740000D02*
X209620000Y-88520000D01*
X209620000Y-80480000D02*
X209620000Y-83260000D01*
X209580000Y-85740000D02*
X209580000Y-88550000D01*
X209580000Y-80450000D02*
X209580000Y-83260000D01*
X209540000Y-85740000D02*
X209540000Y-88580000D01*
X209540000Y-80420000D02*
X209540000Y-83260000D01*
X209500000Y-85740000D02*
X209500000Y-88609000D01*
X209500000Y-80391000D02*
X209500000Y-83260000D01*
X209460000Y-85740000D02*
X209460000Y-88638000D01*
X209460000Y-80362000D02*
X209460000Y-83260000D01*
X209420000Y-85740000D02*
X209420000Y-88666000D01*
X209420000Y-80334000D02*
X209420000Y-83260000D01*
X209380000Y-85740000D02*
X209380000Y-88693000D01*
X209380000Y-80307000D02*
X209380000Y-83260000D01*
X209340000Y-85740000D02*
X209340000Y-88720000D01*
X209340000Y-80280000D02*
X209340000Y-83260000D01*
X209300000Y-85740000D02*
X209300000Y-88747000D01*
X209300000Y-80253000D02*
X209300000Y-83260000D01*
X209260000Y-85740000D02*
X209260000Y-88772000D01*
X209260000Y-80228000D02*
X209260000Y-83260000D01*
X209220000Y-85740000D02*
X209220000Y-88798000D01*
X209220000Y-80202000D02*
X209220000Y-83260000D01*
X209180000Y-85740000D02*
X209180000Y-88823000D01*
X209180000Y-80177000D02*
X209180000Y-83260000D01*
X209140000Y-85740000D02*
X209140000Y-88847000D01*
X209140000Y-80153000D02*
X209140000Y-83260000D01*
X209100000Y-85740000D02*
X209100000Y-88871000D01*
X209100000Y-80129000D02*
X209100000Y-83260000D01*
X209060000Y-85740000D02*
X209060000Y-88894000D01*
X209060000Y-80106000D02*
X209060000Y-83260000D01*
X209020000Y-85740000D02*
X209020000Y-88917000D01*
X209020000Y-80083000D02*
X209020000Y-83260000D01*
X208980000Y-85740000D02*
X208980000Y-88939000D01*
X208980000Y-80061000D02*
X208980000Y-83260000D01*
X208940000Y-85740000D02*
X208940000Y-88961000D01*
X208940000Y-80039000D02*
X208940000Y-83260000D01*
X208900000Y-85740000D02*
X208900000Y-88983000D01*
X208900000Y-80017000D02*
X208900000Y-83260000D01*
X208860000Y-85740000D02*
X208860000Y-89004000D01*
X208860000Y-79996000D02*
X208860000Y-83260000D01*
X208820000Y-85740000D02*
X208820000Y-89024000D01*
X208820000Y-79976000D02*
X208820000Y-83260000D01*
X208780000Y-85740000D02*
X208780000Y-89044000D01*
X208780000Y-79956000D02*
X208780000Y-83260000D01*
X208740000Y-85740000D02*
X208740000Y-89064000D01*
X208740000Y-79936000D02*
X208740000Y-83260000D01*
X208700000Y-85740000D02*
X208700000Y-89083000D01*
X208700000Y-79917000D02*
X208700000Y-83260000D01*
X208660000Y-85740000D02*
X208660000Y-89102000D01*
X208660000Y-79898000D02*
X208660000Y-83260000D01*
X208620000Y-85740000D02*
X208620000Y-89120000D01*
X208620000Y-79880000D02*
X208620000Y-83260000D01*
X208580000Y-85740000D02*
X208580000Y-89138000D01*
X208580000Y-79862000D02*
X208580000Y-83260000D01*
X208540000Y-85740000D02*
X208540000Y-89156000D01*
X208540000Y-79844000D02*
X208540000Y-83260000D01*
X208500000Y-85740000D02*
X208500000Y-89173000D01*
X208500000Y-79827000D02*
X208500000Y-83260000D01*
X208460000Y-85740000D02*
X208460000Y-89190000D01*
X208460000Y-79810000D02*
X208460000Y-83260000D01*
X208420000Y-85740000D02*
X208420000Y-89206000D01*
X208420000Y-79794000D02*
X208420000Y-83260000D01*
X208380000Y-85740000D02*
X208380000Y-89222000D01*
X208380000Y-79778000D02*
X208380000Y-83260000D01*
X208340000Y-85740000D02*
X208340000Y-89238000D01*
X208340000Y-79762000D02*
X208340000Y-83260000D01*
X208300000Y-85740000D02*
X208300000Y-89253000D01*
X208300000Y-79747000D02*
X208300000Y-83260000D01*
X208260000Y-85740000D02*
X208260000Y-89268000D01*
X208260000Y-79732000D02*
X208260000Y-83260000D01*
X208220000Y-85740000D02*
X208220000Y-89282000D01*
X208220000Y-79718000D02*
X208220000Y-83260000D01*
X208180000Y-85740000D02*
X208180000Y-89297000D01*
X208180000Y-79703000D02*
X208180000Y-83260000D01*
X208140000Y-85740000D02*
X208140000Y-89310000D01*
X208140000Y-79690000D02*
X208140000Y-83260000D01*
X208100000Y-85740000D02*
X208100000Y-89324000D01*
X208100000Y-79676000D02*
X208100000Y-83260000D01*
X208060000Y-85740000D02*
X208060000Y-89337000D01*
X208060000Y-79663000D02*
X208060000Y-83260000D01*
X208020000Y-85740000D02*
X208020000Y-89349000D01*
X208020000Y-79651000D02*
X208020000Y-83260000D01*
X207980000Y-85740000D02*
X207980000Y-89361000D01*
X207980000Y-79639000D02*
X207980000Y-83260000D01*
X207940000Y-85740000D02*
X207940000Y-89373000D01*
X207940000Y-79627000D02*
X207940000Y-83260000D01*
X207900000Y-85740000D02*
X207900000Y-89385000D01*
X207900000Y-79615000D02*
X207900000Y-83260000D01*
X207860000Y-85740000D02*
X207860000Y-89396000D01*
X207860000Y-79604000D02*
X207860000Y-83260000D01*
X207820000Y-85740000D02*
X207820000Y-89407000D01*
X207820000Y-79593000D02*
X207820000Y-83260000D01*
X207780000Y-85740000D02*
X207780000Y-89417000D01*
X207780000Y-79583000D02*
X207780000Y-83260000D01*
X207740000Y-79572000D02*
X207740000Y-89428000D01*
X207700000Y-79563000D02*
X207700000Y-89437000D01*
X207660000Y-79553000D02*
X207660000Y-89447000D01*
X207620000Y-79544000D02*
X207620000Y-89456000D01*
X207580000Y-79535000D02*
X207580000Y-89465000D01*
X207540000Y-79527000D02*
X207540000Y-89473000D01*
X207500000Y-79519000D02*
X207500000Y-89481000D01*
X207460000Y-79511000D02*
X207460000Y-89489000D01*
X207420000Y-79503000D02*
X207420000Y-89497000D01*
X207380000Y-79496000D02*
X207380000Y-89504000D01*
X207340000Y-79489000D02*
X207340000Y-89511000D01*
X207300000Y-79483000D02*
X207300000Y-89517000D01*
X207260000Y-79477000D02*
X207260000Y-89523000D01*
X207220000Y-79471000D02*
X207220000Y-89529000D01*
X207180000Y-79465000D02*
X207180000Y-89535000D01*
X207140000Y-79460000D02*
X207140000Y-89540000D01*
X207100000Y-79455000D02*
X207100000Y-89545000D01*
X207060000Y-79451000D02*
X207060000Y-89549000D01*
X207020000Y-79446000D02*
X207020000Y-89554000D01*
X206980000Y-79443000D02*
X206980000Y-89557000D01*
X206940000Y-79439000D02*
X206940000Y-89561000D01*
X206900000Y-79436000D02*
X206900000Y-89564000D01*
X206860000Y-79433000D02*
X206860000Y-89567000D01*
X206820000Y-79430000D02*
X206820000Y-89570000D01*
X206780000Y-79428000D02*
X206780000Y-89572000D01*
X206740000Y-79426000D02*
X206740000Y-89574000D01*
X206700000Y-79424000D02*
X206700000Y-89576000D01*
X206660000Y-79423000D02*
X206660000Y-89577000D01*
X206620000Y-79421000D02*
X206620000Y-89579000D01*
X206580000Y-79421000D02*
X206580000Y-89579000D01*
X206540000Y-79420000D02*
X206540000Y-89580000D01*
X206500000Y-79420000D02*
X206500000Y-89580000D01*
X201520354Y-81125000D02*
X201520354Y-82125000D01*
X201020354Y-81625000D02*
X202020354Y-81625000D01*
%TO.C,L1*%
X187620000Y-69000000D02*
G75*
G02*
X177380000Y-69000000I-5120000J0D01*
G01*
X177380000Y-69000000D02*
G75*
G02*
X187620000Y-69000000I5120000J0D01*
G01*
%TO.C,D1*%
X191200000Y-83030000D02*
X196640000Y-83030000D01*
X196640000Y-85970000D01*
X191200000Y-85970000D01*
X191200000Y-83030000D01*
X190180000Y-84500000D02*
X191200000Y-84500000D01*
X195620000Y-85970000D02*
X195620000Y-83030000D01*
X195740000Y-85970000D02*
X195740000Y-83030000D01*
X195860000Y-85970000D02*
X195860000Y-83030000D01*
X197660000Y-84500000D02*
X196640000Y-84500000D01*
%TO.C,R2*%
X190960000Y-93370000D02*
X190960000Y-93040000D01*
X190960000Y-90630000D02*
X190960000Y-90960000D01*
X184420000Y-93370000D02*
X190960000Y-93370000D01*
X184420000Y-93040000D02*
X184420000Y-93370000D01*
X184420000Y-90960000D02*
X184420000Y-90630000D01*
X184420000Y-90630000D02*
X190960000Y-90630000D01*
%TO.C,C2*%
X189620000Y-97870000D02*
X184380000Y-97870000D01*
X189620000Y-97533000D02*
X189620000Y-97870000D01*
X189620000Y-95130000D02*
X189620000Y-95467000D01*
X184380000Y-97870000D02*
X184380000Y-97533000D01*
X184380000Y-95467000D02*
X184380000Y-95130000D01*
X184380000Y-95130000D02*
X189620000Y-95130000D01*
%TD*%
M02*
