M48
; DRILL file KiCad 10.0.3 date 2026-08-08T20:07:49
; FORMAT={-:-/ absolute / metric / decimal}
; #@! TF.CreationDate,2026-08-08T20:07:49-05:00
; #@! TF.GenerationSoftware,Kicad,Pcbnew,10.0.3
; #@! TF.FileFunction,Plated,1,2,PTH
FMAT,2
METRIC
; #@! TA.AperFunction,Plated,PTH,ComponentDrill
T1C0.800
; #@! TA.AperFunction,Plated,PTH,ComponentDrill
T2C1.000
; #@! TA.AperFunction,Plated,PTH,ComponentDrill
T3C1.100
; #@! TA.AperFunction,Plated,PTH,ComponentDrill
T4C1.300
%
G90
G05
T1
X168.5Y-84.5
X171.0Y-84.5
X173.19Y-96.5
X173.38Y-92.0
X180.81Y-96.5
X181.0Y-92.0
X183.88Y-92.0
X184.5Y-96.5
X189.5Y-96.5
X191.5Y-92.0
T2
X163.0Y-83.46
X163.0Y-86.0
X204.0Y-84.5
X209.0Y-84.5
X215.5Y-83.46
X215.5Y-86.0
T3
X176.9Y-85.7
X178.6Y-82.0
X180.3Y-85.7
X182.0Y-82.0
X183.7Y-85.7
X188.84Y-84.5
X199.0Y-84.5
T4
X180.0Y-69.0
X185.0Y-69.0
M30
